<svg xmlns="http://www.w3.org/2000/svg" xmlns:xlink="http://www.w3.org/1999/xlink" xmlns:serif="http://www.serif.com/" width="100%" height="100%" viewBox="0 0 24 24" xml:space="preserve" style="fill-rule:evenodd;clip-rule:evenodd;stroke-linejoin:round;stroke-miterlimit:2;"><g id="Icon"><path d="M21.286,17.536c-0,-2.07 -1.681,-3.75 -3.75,-3.75c-2.07,-0 -3.75,1.68 -3.75,3.75c-0,2.069 1.68,3.75 3.75,3.75c2.069,-0 3.75,-1.681 3.75,-3.75Zm-1.5,-0c-0,1.241 -1.009,2.25 -2.25,2.25c-1.242,-0 -2.25,-1.009 -2.25,-2.25c-0,-1.242 1.008,-2.25 2.25,-2.25c1.241,-0 2.25,1.008 2.25,2.25Z" id="id_191" style="fill: rgb(237, 223, 223);"></path><path d="M13.071,18.286l1.465,-0c0.413,-0 0.75,-0.337 0.75,-0.75c-0,-0.414 -0.337,-0.75 -0.75,-0.75l-1.465,-0c-0.414,-0 -0.75,0.336 -0.75,0.75c0,0.413 0.336,0.75 0.75,0.75Z" id="id_192" style="fill: rgb(240, 226, 226);"></path><path d="M14.909,21.223l1.036,-1.036c0.292,-0.293 0.292,-0.768 -0,-1.06c-0.293,-0.293 -0.768,-0.293 -1.061,-0l-1.036,1.035c-0.292,0.293 -0.292,0.768 0,1.061c0.293,0.292 0.768,0.292 1.061,-0Z" id="id_193" style="fill: rgb(237, 223, 223);"></path><path d="M18.286,22l-0,-1.464c-0,-0.414 -0.337,-0.75 -0.75,-0.75c-0.414,-0 -0.75,0.336 -0.75,0.75l-0,1.464c-0,0.414 0.336,0.75 0.75,0.75c0.413,-0 0.75,-0.336 0.75,-0.75Z" id="id_194" style="fill: rgb(240, 222, 221);"></path><path d="M21.223,20.162l-1.036,-1.035c-0.293,-0.293 -0.768,-0.293 -1.06,-0c-0.293,0.292 -0.293,0.767 -0,1.06l1.035,1.036c0.293,0.292 0.768,0.292 1.061,-0c0.292,-0.293 0.292,-0.768 -0,-1.061Z" id="id_195" style="fill: rgb(240, 219, 218);"></path><path d="M22,16.786l-1.464,-0c-0.414,-0 -0.75,0.336 -0.75,0.75c-0,0.413 0.336,0.75 0.75,0.75l1.464,-0c0.414,-0 0.75,-0.337 0.75,-0.75c0,-0.414 -0.336,-0.75 -0.75,-0.75Z" id="id_196" style="fill: rgb(232, 214, 214);"></path><path d="M20.162,13.848l-1.035,1.036c-0.293,0.293 -0.293,0.768 -0,1.061c0.292,0.292 0.767,0.292 1.06,-0l1.036,-1.036c0.292,-0.293 0.292,-0.768 -0,-1.061c-0.293,-0.292 -0.768,-0.292 -1.061,0Z" id="id_197" style="fill: rgb(227, 214, 214);"></path><path d="M16.786,13.071l-0,1.465c-0,0.413 0.336,0.75 0.75,0.75c0.413,-0 0.75,-0.337 0.75,-0.75l-0,-1.465c-0,-0.414 -0.337,-0.75 -0.75,-0.75c-0.414,0 -0.75,0.336 -0.75,0.75Z" id="id_198" style="fill: rgb(232, 214, 214);"></path><path d="M13.848,14.909l1.036,1.036c0.293,0.292 0.768,0.292 1.061,-0c0.292,-0.293 0.292,-0.768 -0,-1.061l-1.036,-1.036c-0.293,-0.292 -0.768,-0.292 -1.061,0c-0.292,0.293 -0.292,0.768 0,1.061Z" id="id_199" style="fill: rgb(224, 211, 211);"></path><path d="M1.25,7.75l0,11.25c0,2.071 1.679,3.75 3.75,3.75l10.954,-0c-0.108,-0.227 -0.168,-0.482 -0.168,-0.75l-0,-0.048c-0.046,-0.018 -0.091,-0.037 -0.136,-0.056l-0.034,0.034c-0.683,0.683 -1.792,0.683 -2.475,-0c-0.683,-0.683 -0.683,-1.792 0,-2.475l0.034,-0.034c-0.019,-0.045 -0.038,-0.09 -0.056,-0.135l-0.048,-0c-0.966,-0 -1.75,-0.785 -1.75,-1.75c0,-0.966 0.784,-1.75 1.75,-1.75l0.048,-0c0.018,-0.046 0.037,-0.091 0.056,-0.136l-0.034,-0.034c-0.683,-0.683 -0.683,-1.792 0,-2.475c0.683,-0.683 1.792,-0.683 2.475,0l0.034,0.034c0.045,-0.019 0.09,-0.038 0.136,-0.056l-0,-0.048c-0,-0.966 0.784,-1.75 1.75,-1.75c0.965,0 1.75,0.784 1.75,1.75l-0,0.048c0.045,0.018 0.09,0.037 0.135,0.056l0.034,-0.034c0.683,-0.683 1.792,-0.683 2.475,0c0.683,0.683 0.683,1.792 -0,2.475l-0.034,0.034c0.019,0.045 0.038,0.09 0.056,0.136l0.048,-0c0.268,-0 0.523,0.06 0.75,0.168l-0,-8.204l-21.5,0Zm3.25,9l4,0c0.414,0 0.75,-0.336 0.75,-0.75c0,-0.414 -0.336,-0.75 -0.75,-0.75l-4,0c-0.414,0 -0.75,0.336 -0.75,0.75c0,0.414 0.336,0.75 0.75,0.75Zm0,-3l6,0c0.414,0 0.75,-0.336 0.75,-0.75c0,-0.414 -0.336,-0.75 -0.75,-0.75l-6,0c-0.414,0 -0.75,0.336 -0.75,0.75c0,0.414 0.336,0.75 0.75,0.75Zm0,-3l9,0c0.414,0 0.75,-0.336 0.75,-0.75c0,-0.414 -0.336,-0.75 -0.75,-0.75l-9,0c-0.414,0 -0.75,0.336 -0.75,0.75c0,0.414 0.336,0.75 0.75,0.75Zm-3.25,-4.5l21.5,0l-0,-1.25c-0,-2.071 -1.679,-3.75 -3.75,-3.75l-14,0c-2.071,0 -3.75,1.679 -3.75,3.75l0,1.25Zm11.5,-3c0.414,0 0.75,0.336 0.75,0.75c-0,0.414 -0.336,0.75 -0.75,0.75c-0.414,0 -0.75,-0.336 -0.75,-0.75c-0,-0.414 0.336,-0.75 0.75,-0.75Zm2.75,0c0.414,0 0.75,0.336 0.75,0.75c-0,0.414 -0.336,0.75 -0.75,0.75c-0.414,0 -0.75,-0.336 -0.75,-0.75c-0,-0.414 0.336,-0.75 0.75,-0.75Zm2.75,0c0.414,0 0.75,0.336 0.75,0.75c-0,0.414 -0.336,0.75 -0.75,0.75c-0.414,0 -0.75,-0.336 -0.75,-0.75c-0,-0.414 0.336,-0.75 0.75,-0.75Z" id="id_200" style="fill: rgb(237, 223, 223);"></path></g></svg>