<svg xmlns="http://www.w3.org/2000/svg" xmlns:xlink="http://www.w3.org/1999/xlink" id="Layer_1" x="0px" y="0px" viewBox="0 0 511.998 511.998" style="enable-background:new 0 0 511.998 511.998;" xml:space="preserve"><path style="fill:#EAE8E8;" d="M255.999,135.874c-105.94,0-198.427,57.559-247.916,143.107  c49.488,85.547,141.977,143.107,247.916,143.107c105.938,0,198.427-57.559,247.915-143.107  C454.425,193.433,361.938,135.874,255.999,135.874z"></path><circle style="fill:#6AC6D8;" cx="255.998" cy="278.904" r="143.026"></circle><path style="fill:#9CE7F6;" d="M356.609,338.202c10.209-17.311,16.065-37.495,16.065-59.046  c0-64.293-52.119-116.412-116.412-116.412c-64.294,0-116.413,52.12-116.413,116.412c0,64.293,52.119,116.412,116.413,116.412  c33.741,0,64.13-14.355,85.394-37.293"></path><g style="opacity:0.1;">	<path style="fill:#231F20;" d="M165.121,279.156c0-60.022,45.428-109.429,103.776-115.727c-4.152-0.448-8.367-0.686-12.636-0.686   c-64.294,0-116.413,52.12-116.413,116.412c0,64.293,52.119,116.412,116.413,116.412c4.277,0,8.499-0.233,12.657-0.682   C210.56,388.596,165.121,339.186,165.121,279.156z"></path></g><circle style="fill:#EAE8E8;" cx="220.04" cy="241.857" r="17.579"></circle><path style="fill:#6AC6D8;" d="M308.055,278.717c-0.004-0.947-0.036-1.886-0.088-2.821c-0.019-0.332-0.051-0.66-0.075-0.991  c-0.051-0.679-0.111-1.356-0.19-2.029c-0.04-0.345-0.084-0.691-0.13-1.034c-0.093-0.684-0.2-1.364-0.32-2.039  c-0.053-0.294-0.101-0.589-0.158-0.881c-0.168-0.868-0.356-1.727-0.566-2.578c-0.023-0.085-0.038-0.172-0.061-0.258  c-0.25-0.994-0.532-1.975-0.84-2.944c-0.022-0.067-0.044-0.132-0.068-0.197c-0.28-0.876-0.587-1.74-0.914-2.593  c-0.064-0.17-0.133-0.338-0.198-0.508c-0.305-0.772-0.625-1.534-0.965-2.286c-0.071-0.157-0.141-0.315-0.212-0.472  c-0.385-0.832-0.789-1.655-1.217-2.463c-0.019-0.037-0.036-0.075-0.055-0.112l-0.002,0.001c-8.143-15.33-23.72-26.094-41.925-27.505  c-0.291-0.023-0.581-0.047-0.874-0.066c-0.329-0.02-0.656-0.037-0.987-0.052c-0.735-0.032-1.471-0.056-2.213-0.056  c-0.743,0-1.48,0.023-2.213,0.056c-0.331,0.015-0.659,0.031-0.987,0.052c-0.292,0.019-0.583,0.043-0.874,0.066  c-6.254,0.484-12.185,2.094-17.624,4.594c2.08,2.887,3.318,6.42,3.318,10.251c0,9.709-7.871,17.579-17.58,17.579  c-4.021,0-7.713-1.365-10.674-3.636c-0.212,0.429-0.435,0.855-0.638,1.29c-0.071,0.157-0.142,0.315-0.212,0.473  c-0.338,0.752-0.659,1.513-0.964,2.284c-0.066,0.169-0.136,0.338-0.201,0.509c-0.326,0.855-0.632,1.718-0.913,2.593  c-0.022,0.066-0.045,0.13-0.066,0.197c-0.308,0.969-0.59,1.95-0.841,2.944c-0.022,0.085-0.038,0.172-0.06,0.258  c-0.21,0.852-0.399,1.711-0.567,2.578c-0.057,0.292-0.106,0.587-0.157,0.881c-0.12,0.676-0.227,1.355-0.32,2.039  c-0.046,0.343-0.091,0.689-0.13,1.034c-0.078,0.673-0.139,1.35-0.191,2.029c-0.024,0.331-0.056,0.659-0.074,0.991  c-0.054,0.935-0.084,1.873-0.088,2.821c0,0.061-0.005,0.12-0.005,0.181c0,28.753,23.308,52.061,52.062,52.061  c28.754,0,52.061-23.308,52.061-52.061C308.06,278.838,308.055,278.779,308.055,278.717z"></path><g>	<path style="fill:#231F20;" d="M510.912,274.933c-25.413-43.931-61.957-80.775-105.681-106.55   c-45.049-26.557-96.654-40.593-149.232-40.593c-52.58,0-104.183,14.036-149.232,40.593C63.044,194.158,26.5,231.002,1.087,274.933   c-1.449,2.504-1.449,5.592,0,8.097C26.5,326.96,63.044,363.805,106.767,389.58c45.049,26.557,96.654,40.593,149.232,40.593   s104.183-14.036,149.232-40.593c43.724-25.775,80.267-62.619,105.681-106.55C512.36,280.525,512.36,277.437,510.912,274.933z    M121.059,278.898c0-74.406,60.534-134.94,134.94-134.94c74.405,0,134.939,60.534,134.939,134.94s-60.533,134.94-134.939,134.94   C181.593,413.839,121.059,353.305,121.059,278.898z M17.469,278.981c33.536-55.769,85.314-97.318,145.063-118.734   c-35.083,27.695-57.641,70.588-57.641,118.652c0,48.24,22.724,91.273,58.029,118.957   C103.007,376.481,51.078,334.871,17.469,278.981z M349.078,397.857c35.304-27.686,58.028-70.717,58.028-118.957   c0-48.064-22.558-90.957-57.641-118.652c59.75,21.417,111.526,62.965,145.064,118.735   C460.919,334.871,408.991,376.481,349.078,397.857z"></path>	<path style="fill:#231F20;" d="M352.503,345.165c3.846,2.27,8.802,0.99,11.07-2.856c11.243-19.066,17.186-40.903,17.186-63.153   c0-68.648-55.849-124.497-124.497-124.497s-124.497,55.849-124.497,124.497c0,68.647,55.849,124.497,124.497,124.497   c34.541,0,67.827-14.535,91.322-39.881c3.035-3.274,2.842-8.389-0.432-11.425c-3.274-3.036-8.389-2.844-11.425,0.432   c-20.447,22.055-49.41,34.704-79.465,34.704c-59.732,0-108.329-48.596-108.329-108.328s48.597-108.328,108.329-108.328   s108.328,48.596,108.328,108.328c0,19.363-5.167,38.361-14.944,54.94C347.378,337.941,348.656,342.897,352.503,345.165z"></path>	<path style="fill:#231F20;" d="M81.536,147.164c52.378-32.168,112.707-49.17,174.463-49.17c61.756,0,122.084,17.003,174.461,49.171   c1.319,0.811,2.78,1.196,4.223,1.196c2.717,0,5.37-1.369,6.895-3.855c2.337-3.804,1.147-8.782-2.658-11.118   c-54.923-33.733-118.177-51.563-182.922-51.563S128,99.655,73.075,133.387c-3.805,2.336-4.995,7.315-2.658,11.118   C72.753,148.312,77.731,149.502,81.536,147.164z"></path>	<path style="fill:#231F20;" d="M198.667,260.694c-0.36,1.131-0.688,2.278-0.964,3.366c-0.037,0.14-0.069,0.282-0.082,0.346   c-0.239,0.967-0.46,1.969-0.655,2.977c-0.052,0.267-0.099,0.537-0.146,0.805l-0.036,0.203c-0.139,0.786-0.264,1.574-0.372,2.371   c-0.053,0.392-0.103,0.788-0.15,1.186c-0.089,0.778-0.162,1.56-0.223,2.367l-0.024,0.297c-0.022,0.274-0.044,0.547-0.059,0.82   c-0.06,1.044-0.094,2.09-0.1,3.14c-0.003,0.111-0.006,0.241-0.006,0.326c0,33.165,26.982,60.145,60.146,60.145   c33.164,0,60.145-26.981,60.145-60.145c0-0.1-0.002-0.199-0.004-0.3c-0.007-1.027-0.04-2.061-0.102-3.165   c-0.016-0.29-0.039-0.578-0.064-0.866l-0.022-0.263c-0.059-0.789-0.13-1.576-0.221-2.358c-0.046-0.396-0.097-0.791-0.15-1.188   c-0.109-0.794-0.233-1.583-0.375-2.381l-0.044-0.255c-0.043-0.247-0.087-0.495-0.135-0.739c-0.197-1.014-0.416-2.01-0.65-2.96   c-0.026-0.114-0.054-0.23-0.083-0.344c-0.278-1.102-0.604-2.237-0.966-3.382c-0.034-0.109-0.071-0.216-0.109-0.323   c-0.304-0.944-0.639-1.894-0.997-2.827c-0.061-0.165-0.125-0.33-0.191-0.494l-0.071-0.181c-0.35-0.887-0.72-1.764-1.118-2.649   l-0.239-0.528c-0.449-0.97-0.914-1.912-1.341-2.721c-0.042-0.086-0.089-0.178-0.125-0.246c-0.033-0.064-0.069-0.128-0.105-0.192   c-9.743-18.192-27.799-29.993-48.321-31.584l-0.136-0.011c-0.286-0.023-0.571-0.045-0.889-0.066   c-0.373-0.023-0.744-0.042-1.12-0.058c-1.711-0.074-3.441-0.074-5.145,0c-0.375,0.016-0.747,0.036-1.149,0.06   c-0.288,0.019-0.573,0.041-0.859,0.065l-0.116,0.01c-5.097,0.395-10.094,1.449-14.924,3.125   c-4.441-3.675-10.135-5.886-16.337-5.886c-14.151,0-25.664,11.514-25.664,25.666c0,5.913,2.016,11.361,5.388,15.705   c-0.383,1.01-0.719,1.964-0.993,2.82L198.667,260.694z M252.567,235.069l0.722-0.056c0.285-0.018,0.569-0.031,0.855-0.045   c1.227-0.055,2.476-0.055,3.706,0c0.287,0.014,0.571,0.027,0.826,0.043l0.772,0.059c15.054,1.166,28.284,9.844,35.397,23.214   c0.022,0.043,0.043,0.084,0.061,0.119c0.344,0.651,0.69,1.351,1.009,2.043l0.196,0.433c0.289,0.639,0.559,1.286,0.798,1.887   l0.184,0.473c0.293,0.767,0.544,1.477,0.765,2.17c0.025,0.08,0.032,0.098,0.061,0.178c0.263,0.83,0.497,1.646,0.695,2.432   c0.024,0.102,0.047,0.204,0.073,0.306c0.174,0.707,0.329,1.42,0.469,2.141l0.134,0.752c0.101,0.566,0.192,1.136,0.268,1.706   c0.04,0.294,0.078,0.589,0.112,0.882c0.065,0.563,0.115,1.131,0.158,1.715l0.031,0.384c0.013,0.151,0.025,0.301,0.033,0.445   c0.047,0.844,0.072,1.63,0.075,2.366c0,0.093,0.001,0.185,0.004,0.279c-0.053,24.204-19.76,43.879-43.977,43.879   c-24.213,0-43.919-19.666-43.978-43.864c0.002-0.092,0.004-0.193,0.005-0.258c0.003-0.78,0.029-1.586,0.075-2.395l0.065-0.84   c0.044-0.572,0.094-1.144,0.16-1.711c0.034-0.294,0.072-0.59,0.111-0.88c0.078-0.573,0.168-1.144,0.272-1.726l0.13-0.738   c0.142-0.733,0.302-1.459,0.457-2.09c0.031-0.12,0.059-0.241,0.088-0.372c0.109-0.424,0.224-0.849,0.344-1.268   c0.162,0.041,0.327,0.07,0.489,0.108c0.275,0.064,0.549,0.127,0.827,0.182c0.211,0.042,0.425,0.078,0.638,0.114   c0.273,0.047,0.546,0.091,0.822,0.128c0.204,0.028,0.407,0.055,0.612,0.078c0.31,0.036,0.624,0.063,0.939,0.087   c0.17,0.013,0.34,0.029,0.511,0.039c0.487,0.028,0.979,0.045,1.472,0.045c14.151,0,25.665-11.513,25.665-25.664   c0-0.457-0.013-0.912-0.037-1.364c-0.008-0.15-0.024-0.299-0.034-0.448c-0.022-0.302-0.042-0.603-0.073-0.901   c-0.018-0.176-0.044-0.349-0.067-0.524c-0.034-0.272-0.068-0.543-0.111-0.813c-0.029-0.18-0.064-0.359-0.096-0.538   c-0.047-0.263-0.096-0.526-0.152-0.786c-0.013-0.057-0.02-0.115-0.033-0.172C247.544,235.68,250.039,235.265,252.567,235.069z    M220.04,232.358c3.154,0,5.947,1.552,7.675,3.927c0.011,0.015,0.018,0.031,0.029,0.045c0.292,0.406,0.551,0.83,0.773,1.269   c0,0,0.002,0.004,0.003,0.005c0.426,0.839,0.712,1.731,0.871,2.653c0.015,0.089,0.029,0.18,0.041,0.271   c0.063,0.438,0.103,0.88,0.103,1.327c0,5.235-4.26,9.495-9.496,9.495c-0.326,0-0.647-0.017-0.964-0.049   c-0.057-0.005-0.109-0.018-0.165-0.025c-0.25-0.03-0.499-0.065-0.744-0.114c-0.146-0.029-0.281-0.069-0.421-0.105   c-0.14-0.034-0.281-0.067-0.419-0.108c-0.189-0.057-0.366-0.122-0.543-0.188c-0.074-0.027-0.149-0.053-0.222-0.082   c-0.208-0.083-0.407-0.171-0.598-0.264c-0.024-0.011-0.047-0.023-0.071-0.033c-0.638-0.316-1.177-0.668-1.608-0.999   c-0.026-0.02-0.055-0.036-0.082-0.056c-2.223-1.74-3.658-4.439-3.658-7.474C210.545,236.618,214.805,232.358,220.04,232.358z"></path></g><g></g><g></g><g></g><g></g><g></g><g></g><g></g><g></g><g></g><g></g><g></g><g></g><g></g><g></g><g></g></svg>